<mxfile host="app.diagrams.net" modified="2021-08-29T02:32:58.323Z" agent="5.0 (Macintosh; Intel Mac OS X 10_14_3) AppleWebKit/537.36 (KHTML, like Gecko) Chrome/92.0.4515.159 Safari/537.36" etag="5cq4ongjvrXlgcSNReda" version="15.0.2" type="github">
  <diagram id="3228e29e-7158-1315-38df-8450db1d8a1d" name="Page-1">
    <mxGraphModel dx="1351" dy="-29" grid="0" gridSize="10" guides="1" tooltips="1" connect="1" arrows="1" fold="1" page="1" pageScale="1" pageWidth="850" pageHeight="720" background="#EFF1F3" math="0" shadow="0">
      <root>
        <mxCell id="0" />
        <mxCell id="1" parent="0" />
        <mxCell id="_KJd5dzx4qh3lxpyMWcO-2" value="" style="fontColor=#0066CC;verticalAlign=top;verticalLabelPosition=bottom;labelPosition=center;align=center;html=1;outlineConnect=0;gradientColor=none;gradientDirection=north;strokeWidth=2;shape=mxgraph.networks.pc;fillColor=#67AB9F;fontSize=30;" parent="1" vertex="1">
          <mxGeometry x="206.27" y="831" width="74.65" height="54" as="geometry" />
        </mxCell>
        <mxCell id="T-5VQnCJckOgUX1Wp16H-28" value="客户端" style="text;html=1;strokeColor=none;fillColor=none;align=center;verticalAlign=middle;whiteSpace=wrap;rounded=0;fontSize=22;" parent="1" vertex="1">
          <mxGeometry x="154.08999999999997" y="899" width="179" height="20" as="geometry" />
        </mxCell>
        <mxCell id="aH1-eks404bDhsACtXEq-2" value="" style="fontColor=#0066CC;verticalAlign=top;verticalLabelPosition=bottom;labelPosition=center;align=center;html=1;outlineConnect=0;gradientColor=none;gradientDirection=north;strokeWidth=2;shape=mxgraph.networks.server;fillColor=#4A919B;" parent="1" vertex="1">
          <mxGeometry x="538.27" y="821" width="51.5" height="64" as="geometry" />
        </mxCell>
        <mxCell id="aH1-eks404bDhsACtXEq-3" value="服务端" style="text;html=1;strokeColor=none;fillColor=none;align=center;verticalAlign=middle;whiteSpace=wrap;rounded=0;fontSize=22;" parent="1" vertex="1">
          <mxGeometry x="477.27" y="899" width="179" height="20" as="geometry" />
        </mxCell>
        <mxCell id="aH1-eks404bDhsACtXEq-4" value="&lt;font style=&quot;font-size: 30px&quot;&gt;RST丢失后keepalive&lt;/font&gt;" style="text;html=1;strokeColor=none;fillColor=none;align=center;verticalAlign=middle;whiteSpace=wrap;rounded=0;" parent="1" vertex="1">
          <mxGeometry x="198.5" y="778" width="395" height="28" as="geometry" />
        </mxCell>
        <mxCell id="aH1-eks404bDhsACtXEq-7" value="" style="endArrow=none;html=1;strokeWidth=5;" parent="1" edge="1">
          <mxGeometry width="50" height="50" relative="1" as="geometry">
            <mxPoint x="255" y="1396" as="sourcePoint" />
            <mxPoint x="255" y="962" as="targetPoint" />
          </mxGeometry>
        </mxCell>
        <mxCell id="aH1-eks404bDhsACtXEq-17" value="&lt;span style=&quot;font-family: &amp;quot;open sans&amp;quot; , &amp;quot;clear sans&amp;quot; , &amp;quot;helvetica neue&amp;quot; , &amp;quot;helvetica&amp;quot; , &amp;quot;arial&amp;quot; , sans-serif&quot;&gt;&lt;font style=&quot;font-size: 12px&quot;&gt;ESTABLISHED&lt;/font&gt;&lt;/span&gt;" style="rounded=1;whiteSpace=wrap;html=1;dashed=1;strokeWidth=3;strokeColor=none;fillColor=#535E80;fontColor=#FFFFFF;" parent="1" vertex="1">
          <mxGeometry x="558.5" y="956" width="89.5" height="93" as="geometry" />
        </mxCell>
        <mxCell id="YXoqQ_mGJv7HDvLP6CB5-1" value="" style="endArrow=none;html=1;strokeWidth=5;" parent="1" edge="1">
          <mxGeometry width="50" height="50" relative="1" as="geometry">
            <mxPoint x="541" y="1394" as="sourcePoint" />
            <mxPoint x="540.5000000000001" y="962" as="targetPoint" />
          </mxGeometry>
        </mxCell>
        <mxCell id="CZwPZS3a3ZRwMsVz8uld-6" value="&lt;font color=&quot;#ffffff&quot;&gt;CLOSED&lt;/font&gt;" style="rounded=1;whiteSpace=wrap;html=1;strokeWidth=3;strokeColor=none;fillColor=#808080;" parent="1" vertex="1">
          <mxGeometry x="559.5" y="1101" width="89" height="297" as="geometry" />
        </mxCell>
        <mxCell id="620c4s5pLBTuJ2dwkKwi-3" value="&lt;span style=&quot;font-family: &amp;#34;open sans&amp;#34; , &amp;#34;clear sans&amp;#34; , &amp;#34;helvetica neue&amp;#34; , &amp;#34;helvetica&amp;#34; , &amp;#34;arial&amp;#34; , sans-serif&quot;&gt;&lt;font style=&quot;font-size: 12px&quot;&gt;ESTABLISHED&lt;br&gt;&lt;/font&gt;&lt;/span&gt;" style="rounded=1;whiteSpace=wrap;html=1;dashed=1;strokeWidth=3;fillColor=#535E80;strokeColor=none;fontColor=#FFFFFF;" parent="1" vertex="1">
          <mxGeometry x="154.09" y="962" width="89" height="382" as="geometry" />
        </mxCell>
        <mxCell id="RZoSx3gHirty8Vm16f_1-17" value="&lt;div style=&quot;text-align: left&quot;&gt;&lt;span style=&quot;font-size: 20px&quot;&gt;1.接收缓冲区&lt;/span&gt;&lt;/div&gt;&lt;font style=&quot;font-size: 20px&quot;&gt;&lt;div style=&quot;text-align: left&quot;&gt;&lt;span&gt;有数据时close( )&lt;/span&gt;&lt;/div&gt;&lt;div style=&quot;text-align: left&quot;&gt;&lt;span&gt;会发RST&lt;/span&gt;&lt;/div&gt;&lt;/font&gt;" style="text;html=1;fillColor=none;align=center;verticalAlign=middle;whiteSpace=wrap;rounded=1;dashed=1;strokeWidth=3;" parent="1" vertex="1">
          <mxGeometry x="659" y="1028" width="162.73" height="88.5" as="geometry" />
        </mxCell>
        <mxCell id="RZoSx3gHirty8Vm16f_1-20" value="" style="endArrow=none;html=1;strokeWidth=5;startArrow=classic;startFill=1;endFill=0;fontColor=#4A919B;strokeColor=#EA6B66;" parent="1" edge="1">
          <mxGeometry width="50" height="50" relative="1" as="geometry">
            <mxPoint x="374" y="1076" as="sourcePoint" />
            <mxPoint x="526" y="1076" as="targetPoint" />
          </mxGeometry>
        </mxCell>
        <mxCell id="RZoSx3gHirty8Vm16f_1-21" value="RST" style="text;html=1;strokeColor=none;fillColor=none;align=center;verticalAlign=middle;whiteSpace=wrap;rounded=0;fontSize=20;rotation=0;fontColor=#EA6B66;" parent="1" vertex="1">
          <mxGeometry x="381" y="1044" width="87" height="32" as="geometry" />
        </mxCell>
        <mxCell id="RZoSx3gHirty8Vm16f_1-22" value="&lt;font color=&quot;#ffffff&quot;&gt;CLOSED&lt;/font&gt;" style="rounded=1;whiteSpace=wrap;html=1;strokeWidth=3;strokeColor=none;fillColor=#808080;" parent="1" vertex="1">
          <mxGeometry x="154.09" y="1353" width="89" height="47" as="geometry" />
        </mxCell>
        <mxCell id="RZoSx3gHirty8Vm16f_1-23" value="&lt;font style=&quot;font-size: 20px&quot;&gt;2.客户端&lt;br&gt;未收到RST&lt;br&gt;&lt;/font&gt;" style="text;html=1;fillColor=none;align=center;verticalAlign=middle;whiteSpace=wrap;rounded=0;dashed=1;strokeWidth=3;" parent="1" vertex="1">
          <mxGeometry x="39" y="1053" width="110" height="70" as="geometry" />
        </mxCell>
        <mxCell id="a9wMzhSq-2tXYps5j9kw-1" value="&lt;font style=&quot;font-size: 60px&quot; color=&quot;#ea6b66&quot;&gt;×&lt;/font&gt;" style="text;html=1;strokeColor=none;fillColor=none;align=center;verticalAlign=middle;whiteSpace=wrap;rounded=0;" parent="1" vertex="1">
          <mxGeometry x="334" y="1050" width="40" height="20" as="geometry" />
        </mxCell>
        <mxCell id="a9wMzhSq-2tXYps5j9kw-2" value="&lt;font style=&quot;font-size: 20px&quot; color=&quot;#ea6b66&quot;&gt;丢失&lt;/font&gt;" style="text;html=1;strokeColor=none;fillColor=none;align=center;verticalAlign=middle;whiteSpace=wrap;rounded=0;" parent="1" vertex="1">
          <mxGeometry x="324" y="1082" width="60" height="24" as="geometry" />
        </mxCell>
        <mxCell id="a9wMzhSq-2tXYps5j9kw-3" value="" style="endArrow=classic;html=1;strokeWidth=5;fontSize=20;fontColor=#4A919B;strokeColor=#4A919B;" parent="1" edge="1">
          <mxGeometry width="50" height="50" relative="1" as="geometry">
            <mxPoint x="272.25" y="1306" as="sourcePoint" />
            <mxPoint x="519.75" y="1306" as="targetPoint" />
          </mxGeometry>
        </mxCell>
        <mxCell id="a9wMzhSq-2tXYps5j9kw-4" value="keepalive包" style="text;html=1;strokeColor=none;fillColor=none;align=center;verticalAlign=middle;whiteSpace=wrap;rounded=0;fontSize=20;fontColor=#4A919B;" parent="1" vertex="1">
          <mxGeometry x="310" y="1275" width="174.25" height="21" as="geometry" />
        </mxCell>
        <mxCell id="a9wMzhSq-2tXYps5j9kw-5" value="" style="endArrow=none;html=1;strokeWidth=5;startArrow=classic;startFill=1;endFill=0;fontColor=#4A919B;strokeColor=#EA6B66;" parent="1" edge="1">
          <mxGeometry width="50" height="50" relative="1" as="geometry">
            <mxPoint x="271.01" y="1348" as="sourcePoint" />
            <mxPoint x="523.51" y="1348" as="targetPoint" />
          </mxGeometry>
        </mxCell>
        <mxCell id="a9wMzhSq-2tXYps5j9kw-6" value="RST" style="text;html=1;strokeColor=none;fillColor=none;align=center;verticalAlign=middle;whiteSpace=wrap;rounded=0;fontSize=20;rotation=0;fontColor=#EA6B66;" parent="1" vertex="1">
          <mxGeometry x="349" y="1317" width="87" height="32" as="geometry" />
        </mxCell>
        <mxCell id="MItT4q851IYaDBz2lIjK-1" value="&lt;font face=&quot;open sans, clear sans, helvetica neue, helvetica, arial, sans-serif&quot; style=&quot;font-size: 20px&quot;&gt;close( )&lt;/font&gt;" style="rounded=1;whiteSpace=wrap;html=1;dashed=1;strokeWidth=3;strokeColor=none;fontColor=#FFFFFF;fillColor=#4A919B;" parent="1" vertex="1">
          <mxGeometry x="559.5" y="1056" width="89.5" height="38" as="geometry" />
        </mxCell>
        <mxCell id="MItT4q851IYaDBz2lIjK-2" value="" style="points=[[0.145,0.145,0],[0.5,0,0],[0.855,0.145,0],[1,0.5,0],[0.855,0.855,0],[0.5,1,0],[0.145,0.855,0],[0,0.5,0]];shape=mxgraph.bpmn.event;html=1;verticalLabelPosition=bottom;labelBackgroundColor=#ffffff;verticalAlign=top;align=center;perimeter=ellipsePerimeter;outlineConnect=0;aspect=fixed;outline=catching;symbol=timer;fillColor=#535E80;strokeColor=#FFFFFF;" parent="1" vertex="1">
          <mxGeometry x="364" y="1157" width="50" height="50" as="geometry" />
        </mxCell>
        <mxCell id="MItT4q851IYaDBz2lIjK-3" value="&lt;span style=&quot;font-size: 20px&quot;&gt;&lt;b&gt;···&lt;/b&gt;&lt;/span&gt;" style="text;html=1;strokeColor=none;fillColor=none;align=center;verticalAlign=middle;whiteSpace=wrap;rounded=0;dashed=1;rotation=90;" parent="1" vertex="1">
          <mxGeometry x="369" y="1126" width="40" height="20" as="geometry" />
        </mxCell>
        <mxCell id="MItT4q851IYaDBz2lIjK-4" value="&lt;font style=&quot;font-size: 20px&quot;&gt;&lt;b&gt;···&lt;/b&gt;&lt;/font&gt;" style="text;html=1;strokeColor=none;fillColor=none;align=center;verticalAlign=middle;whiteSpace=wrap;rounded=0;dashed=1;rotation=90;" parent="1" vertex="1">
          <mxGeometry x="369" y="1225" width="40" height="20" as="geometry" />
        </mxCell>
      </root>
    </mxGraphModel>
  </diagram>
</mxfile>
